# xmcd
#
# Track frame offsets:
# 150
# 15222
# 28992
# 43577
# 57660
# 72785
# 87242
# 100827
# 113785
# 126867
# 140287
# 152850
# 165195
# 178197
# 190975
# 203515
# 215372
# 228317
# 240782
# 253677
# 264660
# 276380
#
# Disc length: 3846 seconds
#
#
# Revision: 1
# Processed by: cddbd v1.5.2PL0 Copyright (c) Steve Scherf et al.
# Submitted via: FreeRIP 2.951 
#
DISCID=2e0f0416
DTITLE=Blind Boy Fuller - Completed Recorded Works In Chronological Order [CD 3)
DYEAR=1992
DGENRE=Blues
TTITLE0=Put You Back in the Jail
TTITLE1=Walking and Looking Blues
TTITLE2=Bulldog Blues
TTITLE3=Where My Woman Usta Lay
TTITLE4=Working Man Blues
TTITLE5=Weeping Willow
TTITLE6=Corrine What Makes You Treat Me So?
TTITLE7=Stealing Bo-Hog
TTITLE8=Worried and Evil Man Blues
TTITLE9=Bull Dog Blues
TTITLE10=Break of Day Blues
TTITLE11=Oh Zee Zas Rag
TTITLE12=Throw Your Yas Yas Back in Jail
TTITLE13=Snake Woman Blues
TTITLE14=Mojo Hidin' Woman
TTITLE15=Steel Hearted Woman
TTITLE16=Ain't No Gettin' Along
TTITLE17=Careless Love
TTITLE18=New Louise Louise Blues
TTITLE19=Mistreater, You're Going to Be Sorry
TTITLE20=Bye Bye Baby Blues
TTITLE21=Looking for My Woman, No. 2
EXTD=12 July to 15 December 1937
EXTT0=
EXTT1=
EXTT2=
EXTT3=
EXTT4=
EXTT5=
EXTT6=
EXTT7=
EXTT8=
EXTT9=
EXTT10=
EXTT11=
EXTT12=
EXTT13=
EXTT14=
EXTT15=
EXTT16=
EXTT17=
EXTT18=
EXTT19=
EXTT20=
EXTT21=
PLAYORDER=
